<?xml version="1.0" standalone="no"?>
<!DOCTYPE svg PUBLIC "-//W3C//DTD SVG 20010904//EN"
 "http://www.w3.org/TR/2001/REC-SVG-20010904/DTD/svg10.dtd">
<svg version="1.0" xmlns="http://www.w3.org/2000/svg"
 width="70.000000pt" height="70.000000pt" viewBox="0 0 70.000000 70.000000"
 preserveAspectRatio="xMidYMid meet">
<metadata>
Created by potrace 1.11, written by Peter Selinger 2001-2013
</metadata>
<g transform="translate(0.000000,70.000000) scale(0.100000,-0.100000)"
fill="#000000" stroke="none">
<path d="M340 602 c0 -57 -2 -62 -18 -53 -10 5 -29 21 -44 36 -17 17 -29 22
-33 15 -7 -11 1 -20 62 -62 33 -23 42 -38 23 -38 -5 0 -10 -18 -10 -39 0 -22
-4 -42 -8 -45 -5 -3 -23 4 -42 15 -24 15 -35 17 -40 9 -11 -18 -19 0 -26 61
-3 30 -11 59 -16 64 -11 11 -3 -89 9 -108 4 -6 -19 3 -50 21 -31 17 -59 28
-62 23 -3 -5 15 -20 41 -32 25 -13 48 -27 50 -31 3 -4 -18 -15 -46 -25 -27
-10 -50 -21 -50 -25 0 -13 22 -9 69 12 47 22 65 25 56 10 -3 -5 13 -19 37 -31
l42 -22 -29 -23 c-17 -13 -34 -24 -39 -24 -4 0 -6 -7 -2 -15 7 -21 -13 -19
-69 5 -51 22 -65 24 -65 12 0 -4 23 -16 51 -26 l52 -19 -24 -18 c-13 -10 -36
-24 -51 -30 -16 -6 -28 -15 -28 -20 0 -15 14 -10 64 21 l48 31 -7 -62 c-5 -39
-4 -59 3 -56 5 4 12 34 16 66 7 58 20 85 28 59 3 -8 15 -5 40 10 19 12 38 19
41 15 4 -3 7 -26 7 -50 0 -27 4 -42 10 -38 6 3 10 2 10 -2 0 -5 -22 -26 -50
-47 -27 -21 -47 -42 -44 -47 3 -5 24 7 47 27 l42 35 5 -63 c6 -69 18 -61 22
15 l3 48 42 -35 c23 -20 44 -32 47 -27 3 5 -17 26 -44 47 -48 37 -61 54 -40
54 6 0 10 17 10 38 0 51 7 56 45 32 18 -11 40 -18 48 -14 12 4 16 -7 22 -55 4
-34 12 -64 17 -67 7 -5 8 12 4 50 -4 31 -5 56 -2 56 9 0 48 -22 68 -38 9 -8
22 -11 28 -7 7 4 -9 19 -42 38 l-53 30 40 18 c22 10 46 18 53 18 14 1 17 21 3
21 -5 0 -30 -9 -56 -20 -54 -23 -76 -25 -70 -7 3 7 -10 21 -30 31 -43 23 -44
31 -5 51 16 8 33 22 38 31 7 13 14 13 61 -5 56 -23 71 -25 71 -13 0 4 -23 15
-50 25 -28 10 -48 21 -46 26 3 4 23 16 45 27 23 10 41 25 41 32 0 7 -20 1 -54
-18 l-53 -30 9 51 c5 28 7 54 4 57 -10 10 -14 -2 -21 -58 -3 -30 -10 -59 -16
-65 -6 -5 -9 -4 -9 4 0 9 -11 7 -36 -8 -19 -12 -40 -19 -45 -16 -5 4 -9 24 -9
46 0 21 -4 39 -10 39 -21 0 -8 17 40 53 28 21 48 42 44 48 -3 5 -24 -7 -47
-28 l-42 -38 -3 55 c-5 79 -22 88 -22 12z m-3 -228 c-2 -3 -12 -2 -21 2 -16 6
-16 8 1 24 17 16 18 16 21 -2 2 -11 2 -22 -1 -24z m50 13 c-6 -20 -27 -19 -27
2 0 14 5 19 15 14 9 -3 14 -10 12 -16z m-59 -42 c-2 -1 -12 -7 -23 -13 -18 -9
-20 -7 -20 18 0 26 1 27 23 12 12 -8 21 -16 20 -17z m77 14 c-4 -5 1 -19 11
-31 l19 -20 -33 19 c-29 16 -30 19 -15 31 21 15 26 15 18 1z m-65 -49 c0 -13
-5 -18 -15 -14 -16 7 -19 17 -8 27 12 13 23 7 23 -13z m50 0 c0 -4 -7 -10 -15
-14 -10 -4 -15 1 -15 14 0 13 5 18 15 14 8 -4 15 -10 15 -14z"/>
<path d="M258 478 c-7 -18 2 -38 15 -38 23 0 38 17 31 33 -7 20 -40 23 -46 5z"/>
<path d="M398 478 c-8 -21 2 -38 24 -38 14 0 19 6 16 22 -3 25 -33 36 -40 16z"/>
<path d="M201 366 c-16 -19 -6 -36 20 -36 15 0 20 6 17 22 -4 27 -21 33 -37
14z"/>
<path d="M462 368 c-20 -20 -14 -38 14 -38 20 0 25 4 22 22 -4 26 -19 33 -36
16z"/>
<path d="M261 241 c-12 -21 -5 -31 20 -31 21 0 31 24 16 39 -16 16 -25 14 -36
-8z"/>
<path d="M403 249 c-16 -16 -5 -39 19 -39 14 0 19 6 16 22 -4 25 -19 33 -35
17z"/>
</g>
</svg>
